# Shotgun 3D - original low-poly mesh
v -0.07 -0.60 -0.05
v 0.07 -0.60 -0.05
v 0.07 0.60 -0.05
v -0.07 0.60 -0.05
v -0.07 -0.60 0.05
v 0.07 -0.60 0.05
v 0.07 0.60 0.05
v -0.07 0.60 0.05
v -0.11 -0.28 -0.18
v 0.11 -0.28 -0.18
v 0.11 0.10 -0.18
v -0.11 0.10 -0.18
v -0.11 -0.28 -0.02
v 0.11 -0.28 -0.02
v 0.11 0.10 -0.02
v -0.11 0.10 -0.02
v -0.08 -0.28 0.08
v 0.08 -0.28 0.08
v 0.08 0.05 0.08
v -0.08 0.05 0.08
f 1 2 6 5
f 2 3 7 6
f 3 4 8 7
f 4 1 5 8
f 9 10 14 13
f 10 11 15 14
f 11 12 16 15
f 12 9 13 16
f 17 18 19 20
f 18 10 14 19
