# Authored 3D shotgun mesh
mtllib Actors.mtl
o Receiver
v -0.45 0 -0.75
v 0.45 0 -0.75
v 0.45 0 0.75
v -0.45 0 0.75
v -0.45 0.45 -0.75
v 0.45 0.45 -0.75
v 0.45 0.45 0.75
v -0.45 0.45 0.75
usemtl Weapon
f 1 2 6 5
f 2 3 7 6
f 3 4 8 7
f 4 1 5 8
f 5 6 7 8
f 4 3 2 1
o Stock
v -0.25 0 -2.0
v 0.25 0 -2.0
v 0.25 0.4 -0.7
v -0.25 0.4 -0.7
v -0.25 0.3 -2.0
v 0.25 0.3 -2.0
v 0.25 0.65 -0.7
v -0.25 0.65 -0.7
usemtl Weapon
f 9 10 14 13
f 10 11 15 14
f 11 12 16 15
f 12 9 13 16
f 13 14 15 16
f 12 11 10 9
o Barrel
v -0.12 0.18 0.7
v 0.12 0.18 0.7
v 0.12 0.42 3.5
v -0.12 0.42 3.5
v -0.12 0.30 0.7
v 0.12 0.30 0.7
v 0.12 0.54 3.5
v -0.12 0.54 3.5
usemtl Metal
f 17 18 22 21
f 18 19 23 22
f 19 20 24 23
f 20 17 21 24
f 21 22 23 24
f 20 19 18 17
o Grip
v -0.18 -0.65 -0.25
v 0.18 -0.65 -0.25
v 0.18 -0.25 0.15
v -0.18 -0.25 0.15
v -0.18 -0.55 0.05
v 0.18 -0.55 0.05
v 0.18 -0.15 0.45
v -0.18 -0.15 0.45
usemtl Weapon
f 25 26 30 29
f 26 27 31 30
f 27 28 32 31
f 28 25 29 32
f 29 30 31 32
f 28 27 26 25
