# Original authored city mesh
mtllib CityKit.mtl
v -127.000 0.000 -140.000
v -113.000 0.000 -140.000
v -113.000 0.000 140.000
v -127.000 0.000 140.000
v -127.000 0.120 -140.000
v -113.000 0.120 -140.000
v -113.000 0.120 140.000
v -127.000 0.120 140.000
o RoadV
usemtl Road
f 1 2 6 5
f 2 3 7 6
f 3 4 8 7
f 4 1 5 8
f 5 6 7 8
f 4 3 2 1
v -140.000 0.000 -127.000
v 140.000 0.000 -127.000
v 140.000 0.000 -113.000
v -140.000 0.000 -113.000
v -140.000 0.120 -127.000
v 140.000 0.120 -127.000
v 140.000 0.120 -113.000
v -140.000 0.120 -113.000
o RoadH
usemtl Road
f 9 10 14 13
f 10 11 15 14
f 11 12 16 15
f 12 9 13 16
f 13 14 15 16
f 12 11 10 9
v -47.000 0.000 -140.000
v -33.000 0.000 -140.000
v -33.000 0.000 140.000
v -47.000 0.000 140.000
v -47.000 0.120 -140.000
v -33.000 0.120 -140.000
v -33.000 0.120 140.000
v -47.000 0.120 140.000
o RoadV
usemtl Road
f 17 18 22 21
f 18 19 23 22
f 19 20 24 23
f 20 17 21 24
f 21 22 23 24
f 20 19 18 17
v -140.000 0.000 -47.000
v 140.000 0.000 -47.000
v 140.000 0.000 -33.000
v -140.000 0.000 -33.000
v -140.000 0.120 -47.000
v 140.000 0.120 -47.000
v 140.000 0.120 -33.000
v -140.000 0.120 -33.000
o RoadH
usemtl Road
f 25 26 30 29
f 26 27 31 30
f 27 28 32 31
f 28 25 29 32
f 29 30 31 32
f 28 27 26 25
v 33.000 0.000 -140.000
v 47.000 0.000 -140.000
v 47.000 0.000 140.000
v 33.000 0.000 140.000
v 33.000 0.120 -140.000
v 47.000 0.120 -140.000
v 47.000 0.120 140.000
v 33.000 0.120 140.000
o RoadV
usemtl Road
f 33 34 38 37
f 34 35 39 38
f 35 36 40 39
f 36 33 37 40
f 37 38 39 40
f 36 35 34 33
v -140.000 0.000 33.000
v 140.000 0.000 33.000
v 140.000 0.000 47.000
v -140.000 0.000 47.000
v -140.000 0.120 33.000
v 140.000 0.120 33.000
v 140.000 0.120 47.000
v -140.000 0.120 47.000
o RoadH
usemtl Road
f 41 42 46 45
f 42 43 47 46
f 43 44 48 47
f 44 41 45 48
f 45 46 47 48
f 44 43 42 41
v 113.000 0.000 -140.000
v 127.000 0.000 -140.000
v 127.000 0.000 140.000
v 113.000 0.000 140.000
v 113.000 0.120 -140.000
v 127.000 0.120 -140.000
v 127.000 0.120 140.000
v 113.000 0.120 140.000
o RoadV
usemtl Road
f 49 50 54 53
f 50 51 55 54
f 51 52 56 55
f 52 49 53 56
f 53 54 55 56
f 52 51 50 49
v -140.000 0.000 113.000
v 140.000 0.000 113.000
v 140.000 0.000 127.000
v -140.000 0.000 127.000
v -140.000 0.120 113.000
v 140.000 0.120 113.000
v 140.000 0.120 127.000
v -140.000 0.120 127.000
o RoadH
usemtl Road
f 57 58 62 61
f 58 59 63 62
f 59 60 64 63
f 60 57 61 64
f 61 62 63 64
f 60 59 58 57
v -145.000 -0.500 -145.000
v 145.000 -0.500 -145.000
v 145.000 -0.500 145.000
v -145.000 -0.500 145.000
v -145.000 0.000 -145.000
v 145.000 0.000 -145.000
v 145.000 0.000 145.000
v -145.000 0.000 145.000
o Ground
usemtl Ground
f 65 66 70 69
f 66 67 71 70
f 67 68 72 71
f 68 65 69 72
f 69 70 71 72
f 68 67 66 65
v 112.500 0.000 -140.000
v 137.500 0.000 -140.000
v 137.500 0.000 140.000
v 112.500 0.000 140.000
v 112.500 0.120 -140.000
v 137.500 0.120 -140.000
v 137.500 0.120 140.000
v 112.500 0.120 140.000
o Canal
usemtl Water
f 73 74 78 77
f 74 75 79 78
f 75 76 80 79
f 76 73 77 80
f 77 78 79 80
f 76 75 74 73
v -112.000 0.180 -112.000
v -88.000 0.180 -112.000
v -88.000 0.180 -88.000
v -112.000 0.180 -88.000
v -112.000 12.180 -112.000
v -88.000 12.180 -112.000
v -88.000 12.180 -88.000
v -112.000 12.180 -88.000
o B0
usemtl BuildingA
f 81 82 86 85
f 82 83 87 86
f 83 84 88 87
f 84 81 85 88
f 85 86 87 88
f 84 83 82 81
v -112.500 12.180 -112.500
v -87.500 12.180 -112.500
v -87.500 12.180 -87.500
v -112.500 12.180 -87.500
v -112.500 12.680 -112.500
v -87.500 12.680 -112.500
v -87.500 12.680 -87.500
v -112.500 12.680 -87.500
o R0
usemtl Roof
f 89 90 94 93
f 90 91 95 94
f 91 92 96 95
f 92 89 93 96
f 93 94 95 96
f 92 91 90 89
v -52.000 0.180 -112.000
v -28.000 0.180 -112.000
v -28.000 0.180 -88.000
v -52.000 0.180 -88.000
v -52.000 20.180 -112.000
v -28.000 20.180 -112.000
v -28.000 20.180 -88.000
v -52.000 20.180 -88.000
o B1
usemtl BuildingB
f 97 98 102 101
f 98 99 103 102
f 99 100 104 103
f 100 97 101 104
f 101 102 103 104
f 100 99 98 97
v -52.500 20.180 -112.500
v -27.500 20.180 -112.500
v -27.500 20.180 -87.500
v -52.500 20.180 -87.500
v -52.500 20.680 -112.500
v -27.500 20.680 -112.500
v -27.500 20.680 -87.500
v -52.500 20.680 -87.500
o R1
usemtl Roof
f 105 106 110 109
f 106 107 111 110
f 107 108 112 111
f 108 105 109 112
f 109 110 111 112
f 108 107 106 105
v 28.000 0.180 -112.000
v 52.000 0.180 -112.000
v 52.000 0.180 -88.000
v 28.000 0.180 -88.000
v 28.000 8.180 -112.000
v 52.000 8.180 -112.000
v 52.000 8.180 -88.000
v 28.000 8.180 -88.000
o B2
usemtl BuildingC
f 113 114 118 117
f 114 115 119 118
f 115 116 120 119
f 116 113 117 120
f 117 118 119 120
f 116 115 114 113
v 27.500 8.180 -112.500
v 52.500 8.180 -112.500
v 52.500 8.180 -87.500
v 27.500 8.180 -87.500
v 27.500 8.680 -112.500
v 52.500 8.680 -112.500
v 52.500 8.680 -87.500
v 27.500 8.680 -87.500
o R2
usemtl Roof
f 121 122 126 125
f 122 123 127 126
f 123 124 128 127
f 124 121 125 128
f 125 126 127 128
f 124 123 122 121
v 88.000 0.180 -112.000
v 112.000 0.180 -112.000
v 112.000 0.180 -88.000
v 88.000 0.180 -88.000
v 88.000 16.180 -112.000
v 112.000 16.180 -112.000
v 112.000 16.180 -88.000
v 88.000 16.180 -88.000
o B3
usemtl BuildingD
f 129 130 134 133
f 130 131 135 134
f 131 132 136 135
f 132 129 133 136
f 133 134 135 136
f 132 131 130 129
v 87.500 16.180 -112.500
v 112.500 16.180 -112.500
v 112.500 16.180 -87.500
v 87.500 16.180 -87.500
v 87.500 16.680 -112.500
v 112.500 16.680 -112.500
v 112.500 16.680 -87.500
v 87.500 16.680 -87.500
o R3
usemtl Roof
f 137 138 142 141
f 138 139 143 142
f 139 140 144 143
f 140 137 141 144
f 141 142 143 144
f 140 139 138 137
v -112.000 0.180 -52.000
v -88.000 0.180 -52.000
v -88.000 0.180 -28.000
v -112.000 0.180 -28.000
v -112.000 24.180 -52.000
v -88.000 24.180 -52.000
v -88.000 24.180 -28.000
v -112.000 24.180 -28.000
o B4
usemtl BuildingA
f 145 146 150 149
f 146 147 151 150
f 147 148 152 151
f 148 145 149 152
f 149 150 151 152
f 148 147 146 145
v -112.500 24.180 -52.500
v -87.500 24.180 -52.500
v -87.500 24.180 -27.500
v -112.500 24.180 -27.500
v -112.500 24.680 -52.500
v -87.500 24.680 -52.500
v -87.500 24.680 -27.500
v -112.500 24.680 -27.500
o R4
usemtl Roof
f 153 154 158 157
f 154 155 159 158
f 155 156 160 159
f 156 153 157 160
f 157 158 159 160
f 156 155 154 153
v -52.000 0.180 -52.000
v -28.000 0.180 -52.000
v -28.000 0.180 -28.000
v -52.000 0.180 -28.000
v -52.000 10.180 -52.000
v -28.000 10.180 -52.000
v -28.000 10.180 -28.000
v -52.000 10.180 -28.000
o B5
usemtl BuildingB
f 161 162 166 165
f 162 163 167 166
f 163 164 168 167
f 164 161 165 168
f 165 166 167 168
f 164 163 162 161
v -52.500 10.180 -52.500
v -27.500 10.180 -52.500
v -27.500 10.180 -27.500
v -52.500 10.180 -27.500
v -52.500 10.680 -52.500
v -27.500 10.680 -52.500
v -27.500 10.680 -27.500
v -52.500 10.680 -27.500
o R5
usemtl Roof
f 169 170 174 173
f 170 171 175 174
f 171 172 176 175
f 172 169 173 176
f 173 174 175 176
f 172 171 170 169
v 28.000 0.180 -52.000
v 52.000 0.180 -52.000
v 52.000 0.180 -28.000
v 28.000 0.180 -28.000
v 28.000 18.180 -52.000
v 52.000 18.180 -52.000
v 52.000 18.180 -28.000
v 28.000 18.180 -28.000
o B6
usemtl BuildingC
f 177 178 182 181
f 178 179 183 182
f 179 180 184 183
f 180 177 181 184
f 181 182 183 184
f 180 179 178 177
v 27.500 18.180 -52.500
v 52.500 18.180 -52.500
v 52.500 18.180 -27.500
v 27.500 18.180 -27.500
v 27.500 18.680 -52.500
v 52.500 18.680 -52.500
v 52.500 18.680 -27.500
v 27.500 18.680 -27.500
o R6
usemtl Roof
f 185 186 190 189
f 186 187 191 190
f 187 188 192 191
f 188 185 189 192
f 189 190 191 192
f 188 187 186 185
v 88.000 0.180 -52.000
v 112.000 0.180 -52.000
v 112.000 0.180 -28.000
v 88.000 0.180 -28.000
v 88.000 28.180 -52.000
v 112.000 28.180 -52.000
v 112.000 28.180 -28.000
v 88.000 28.180 -28.000
o B7
usemtl BuildingD
f 193 194 198 197
f 194 195 199 198
f 195 196 200 199
f 196 193 197 200
f 197 198 199 200
f 196 195 194 193
v 87.500 28.180 -52.500
v 112.500 28.180 -52.500
v 112.500 28.180 -27.500
v 87.500 28.180 -27.500
v 87.500 28.680 -52.500
v 112.500 28.680 -52.500
v 112.500 28.680 -27.500
v 87.500 28.680 -27.500
o R7
usemtl Roof
f 201 202 206 205
f 202 203 207 206
f 203 204 208 207
f 204 201 205 208
f 205 206 207 208
f 204 203 202 201
v -112.000 0.180 28.000
v -88.000 0.180 28.000
v -88.000 0.180 52.000
v -112.000 0.180 52.000
v -112.000 14.180 28.000
v -88.000 14.180 28.000
v -88.000 14.180 52.000
v -112.000 14.180 52.000
o B8
usemtl BuildingA
f 209 210 214 213
f 210 211 215 214
f 211 212 216 215
f 212 209 213 216
f 213 214 215 216
f 212 211 210 209
v -112.500 14.180 27.500
v -87.500 14.180 27.500
v -87.500 14.180 52.500
v -112.500 14.180 52.500
v -112.500 14.680 27.500
v -87.500 14.680 27.500
v -87.500 14.680 52.500
v -112.500 14.680 52.500
o R8
usemtl Roof
f 217 218 222 221
f 218 219 223 222
f 219 220 224 223
f 220 217 221 224
f 221 222 223 224
f 220 219 218 217
v -52.000 0.180 28.000
v -28.000 0.180 28.000
v -28.000 0.180 52.000
v -52.000 0.180 52.000
v -52.000 22.180 28.000
v -28.000 22.180 28.000
v -28.000 22.180 52.000
v -52.000 22.180 52.000
o B9
usemtl BuildingB
f 225 226 230 229
f 226 227 231 230
f 227 228 232 231
f 228 225 229 232
f 229 230 231 232
f 228 227 226 225
v -52.500 22.180 27.500
v -27.500 22.180 27.500
v -27.500 22.180 52.500
v -52.500 22.180 52.500
v -52.500 22.680 27.500
v -27.500 22.680 27.500
v -27.500 22.680 52.500
v -52.500 22.680 52.500
o R9
usemtl Roof
f 233 234 238 237
f 234 235 239 238
f 235 236 240 239
f 236 233 237 240
f 237 238 239 240
f 236 235 234 233
v 28.000 0.180 28.000
v 52.000 0.180 28.000
v 52.000 0.180 52.000
v 28.000 0.180 52.000
v 28.000 12.180 28.000
v 52.000 12.180 28.000
v 52.000 12.180 52.000
v 28.000 12.180 52.000
o B10
usemtl BuildingC
f 241 242 246 245
f 242 243 247 246
f 243 244 248 247
f 244 241 245 248
f 245 246 247 248
f 244 243 242 241
v 27.500 12.180 27.500
v 52.500 12.180 27.500
v 52.500 12.180 52.500
v 27.500 12.180 52.500
v 27.500 12.680 27.500
v 52.500 12.680 27.500
v 52.500 12.680 52.500
v 27.500 12.680 52.500
o R10
usemtl Roof
f 249 250 254 253
f 250 251 255 254
f 251 252 256 255
f 252 249 253 256
f 253 254 255 256
f 252 251 250 249
v 88.000 0.180 28.000
v 112.000 0.180 28.000
v 112.000 0.180 52.000
v 88.000 0.180 52.000
v 88.000 20.180 28.000
v 112.000 20.180 28.000
v 112.000 20.180 52.000
v 88.000 20.180 52.000
o B11
usemtl BuildingD
f 257 258 262 261
f 258 259 263 262
f 259 260 264 263
f 260 257 261 264
f 261 262 263 264
f 260 259 258 257
v 87.500 20.180 27.500
v 112.500 20.180 27.500
v 112.500 20.180 52.500
v 87.500 20.180 52.500
v 87.500 20.680 27.500
v 112.500 20.680 27.500
v 112.500 20.680 52.500
v 87.500 20.680 52.500
o R11
usemtl Roof
f 265 266 270 269
f 266 267 271 270
f 267 268 272 271
f 268 265 269 272
f 269 270 271 272
f 268 267 266 265
v -112.000 0.180 88.000
v -88.000 0.180 88.000
v -88.000 0.180 112.000
v -112.000 0.180 112.000
v -112.000 18.180 88.000
v -88.000 18.180 88.000
v -88.000 18.180 112.000
v -112.000 18.180 112.000
o B12
usemtl BuildingA
f 273 274 278 277
f 274 275 279 278
f 275 276 280 279
f 276 273 277 280
f 277 278 279 280
f 276 275 274 273
v -112.500 18.180 87.500
v -87.500 18.180 87.500
v -87.500 18.180 112.500
v -112.500 18.180 112.500
v -112.500 18.680 87.500
v -87.500 18.680 87.500
v -87.500 18.680 112.500
v -112.500 18.680 112.500
o R12
usemtl Roof
f 281 282 286 285
f 282 283 287 286
f 283 284 288 287
f 284 281 285 288
f 285 286 287 288
f 284 283 282 281
v -52.000 0.180 88.000
v -28.000 0.180 88.000
v -28.000 0.180 112.000
v -52.000 0.180 112.000
v -52.000 9.180 88.000
v -28.000 9.180 88.000
v -28.000 9.180 112.000
v -52.000 9.180 112.000
o B13
usemtl BuildingB
f 289 290 294 293
f 290 291 295 294
f 291 292 296 295
f 292 289 293 296
f 293 294 295 296
f 292 291 290 289
v -52.500 9.180 87.500
v -27.500 9.180 87.500
v -27.500 9.180 112.500
v -52.500 9.180 112.500
v -52.500 9.680 87.500
v -27.500 9.680 87.500
v -27.500 9.680 112.500
v -52.500 9.680 112.500
o R13
usemtl Roof
f 297 298 302 301
f 298 299 303 302
f 299 300 304 303
f 300 297 301 304
f 301 302 303 304
f 300 299 298 297
v 28.000 0.180 88.000
v 52.000 0.180 88.000
v 52.000 0.180 112.000
v 28.000 0.180 112.000
v 28.000 26.180 88.000
v 52.000 26.180 88.000
v 52.000 26.180 112.000
v 28.000 26.180 112.000
o B14
usemtl BuildingC
f 305 306 310 309
f 306 307 311 310
f 307 308 312 311
f 308 305 309 312
f 309 310 311 312
f 308 307 306 305
v 27.500 26.180 87.500
v 52.500 26.180 87.500
v 52.500 26.180 112.500
v 27.500 26.180 112.500
v 27.500 26.680 87.500
v 52.500 26.680 87.500
v 52.500 26.680 112.500
v 27.500 26.680 112.500
o R14
usemtl Roof
f 313 314 318 317
f 314 315 319 318
f 315 316 320 319
f 316 313 317 320
f 317 318 319 320
f 316 315 314 313
v 88.000 0.180 88.000
v 112.000 0.180 88.000
v 112.000 0.180 112.000
v 88.000 0.180 112.000
v 88.000 14.180 88.000
v 112.000 14.180 88.000
v 112.000 14.180 112.000
v 88.000 14.180 112.000
o B15
usemtl BuildingD
f 321 322 326 325
f 322 323 327 326
f 323 324 328 327
f 324 321 325 328
f 325 326 327 328
f 324 323 322 321
v 87.500 14.180 87.500
v 112.500 14.180 87.500
v 112.500 14.180 112.500
v 87.500 14.180 112.500
v 87.500 14.680 87.500
v 112.500 14.680 87.500
v 112.500 14.680 112.500
v 87.500 14.680 112.500
o R15
usemtl Roof
f 329 330 334 333
f 330 331 335 334
f 331 332 336 335
f 332 329 333 336
f 333 334 335 336
f 332 331 330 329
v -17.500 0.150 -17.500
v 17.500 0.150 -17.500
v 17.500 0.150 17.500
v -17.500 0.150 17.500
v -17.500 0.270 -17.500
v 17.500 0.270 -17.500
v 17.500 0.270 17.500
v -17.500 0.270 17.500
o Plaza
usemtl Plaza
f 337 338 342 341
f 338 339 343 342
f 339 340 344 343
f 340 337 341 344
f 341 342 343 344
f 340 339 338 337
v -5.000 0.300 -5.000
v 5.000 0.300 -5.000
v 5.000 0.300 5.000
v -5.000 0.300 5.000
v -5.000 0.800 -5.000
v 5.000 0.800 -5.000
v 5.000 0.800 5.000
v -5.000 0.800 5.000
o Fountain
usemtl Stone
f 345 346 350 349
f 346 347 351 350
f 347 348 352 351
f 348 345 349 352
f 349 350 351 352
f 348 347 346 345
v -4.000 0.820 -4.000
v 4.000 0.820 -4.000
v 4.000 0.820 4.000
v -4.000 0.820 4.000
v -4.000 0.900 -4.000
v 4.000 0.900 -4.000
v 4.000 0.900 4.000
v -4.000 0.900 4.000
o Water
usemtl Water
f 353 354 358 357
f 354 355 359 358
f 355 356 360 359
f 356 353 357 360
f 357 358 359 360
f 356 355 354 353
