# Shotgun 3D Player - original low-poly mesh
v -0.22 -0.16 0.55
v 0.22 -0.16 0.55
v 0.22 0.16 0.55
v -0.22 0.16 0.55
v -0.22 -0.16 1.25
v 0.22 -0.16 1.25
v 0.22 0.16 1.25
v -0.22 0.16 1.25
v -0.18 -0.14 1.25
v 0.18 -0.14 1.25
v 0.18 0.14 1.25
v -0.18 0.14 1.25
v -0.18 -0.14 1.58
v 0.18 -0.14 1.58
v 0.18 0.14 1.58
v -0.18 0.14 1.58
v -0.36 -0.10 1.15
v -0.22 -0.10 1.15
v -0.22 0.10 1.15
v -0.36 0.10 1.15
v 0.22 -0.10 1.15
v 0.36 -0.10 1.15
v 0.36 0.10 1.15
v 0.22 0.10 1.15
v -0.17 -0.12 0.05
v -0.02 -0.12 0.05
v -0.02 0.12 0.05
v -0.17 0.12 0.05
v 0.02 -0.12 0.05
v 0.17 -0.12 0.05
v 0.17 0.12 0.05
v 0.02 0.12 0.05
f 1 2 6 5
f 2 3 7 6
f 3 4 8 7
f 4 1 5 8
f 5 6 7 8
f 9 10 14 13
f 10 11 15 14
f 11 12 16 15
f 12 9 13 16
f 13 14 15 16
f 17 18 19 20
f 21 22 23 24
f 25 26 30 29
f 26 27 31 30
f 27 28 32 31
f 28 25 29 32
f 29 30 31 32
