# Barrel 3D - original low-poly mesh
v 0.0 0.0 0.0
v 0.42 0.0 0.0
v 0.29698 0.29698 0.0
v 0.0 0.42 0.0
v -0.29698 0.29698 0.0
v -0.42 0.0 0.0
v -0.29698 -0.29698 0.0
v 0.0 -0.42 0.0
v 0.29698 -0.29698 0.0
v 0.0 0.0 1.0
v 0.42 0.0 1.0
v 0.29698 0.29698 1.0
v 0.0 0.42 1.0
v -0.29698 0.29698 1.0
v -0.42 0.0 1.0
v -0.29698 -0.29698 1.0
v 0.0 -0.42 1.0
v 0.29698 -0.29698 1.0
f 1 2 11 10
f 2 3 12 11
f 3 4 13 12
f 4 5 14 13
f 5 6 15 14
f 6 7 16 15
f 7 8 17 16
f 8 9 18 17
f 9 2 11 18
f 10 11 12 13 14 15 16 17 18
f 1 9 8 7 6 5 4 3 2
