# Shotgun 3D Enemy - original low-poly robot mesh
v -0.34 -0.20 0.62
v 0.34 -0.20 0.62
v 0.34 0.20 0.62
v -0.34 0.20 0.62
v -0.34 -0.20 1.32
v 0.34 -0.20 1.32
v 0.34 0.20 1.32
v -0.34 0.20 1.32
v -0.25 -0.18 1.32
v 0.25 -0.18 1.32
v 0.25 0.18 1.32
v -0.25 0.18 1.32
v -0.25 -0.18 1.66
v 0.25 -0.18 1.66
v 0.25 0.18 1.66
v -0.25 0.18 1.66
v -0.28 -0.11 0.05
v -0.08 -0.11 0.05
v -0.08 0.11 0.05
v -0.28 0.11 0.05
v 0.08 -0.11 0.05
v 0.28 -0.11 0.05
v 0.28 0.11 0.05
v 0.08 0.11 0.05
v -0.46 -0.10 1.18
v -0.34 -0.10 1.18
v -0.34 0.10 1.18
v -0.46 0.10 1.18
v 0.34 -0.10 1.18
v 0.46 -0.10 1.18
v 0.46 0.10 1.18
v 0.34 0.10 1.18
f 1 2 6 5
f 2 3 7 6
f 3 4 8 7
f 4 1 5 8
f 5 6 7 8
f 9 10 14 13
f 10 11 15 14
f 11 12 16 15
f 12 9 13 16
f 13 14 15 16
f 17 18 19 20
f 21 22 23 24
f 25 26 27 28
f 29 30 31 32
