# Hero real 3D mesh
mtllib Actors.mtl
o Body
v -0.600 1.500 -0.350
v 0.600 1.500 -0.350
v 0.600 1.500 0.350
v -0.600 1.500 0.350
v -0.600 3.700 -0.350
v 0.600 3.700 -0.350
v 0.600 3.700 0.350
v -0.600 3.700 0.350
usemtl Hero
f 1 2 6 5
f 2 3 7 6
f 3 4 8 7
f 4 1 5 8
f 5 6 7 8
f 4 3 2 1
o Head
v -0.375 3.100 -0.375
v 0.375 3.100 -0.375
v 0.375 3.100 0.375
v -0.375 3.100 0.375
v -0.375 3.900 -0.375
v 0.375 3.900 -0.375
v 0.375 3.900 0.375
v -0.375 3.900 0.375
usemtl Skin
f 9 10 14 13
f 10 11 15 14
f 11 12 16 15
f 12 9 13 16
f 13 14 15 16
f 12 11 10 9
o LegL
v -0.575 0 -0.250
v -0.125 0 -0.250
v -0.125 0 0.250
v -0.575 0 0.250
v -0.575 1.5 -0.250
v -0.125 1.5 -0.250
v -0.125 1.5 0.250
v -0.575 1.5 0.250
usemtl Pants
f 17 18 22 21
f 18 19 23 22
f 19 20 24 23
f 20 17 21 24
f 21 22 23 24
f 20 19 18 17
o LegR
v 0.125 0 -0.250
v 0.575 0 -0.250
v 0.575 0 0.250
v 0.125 0 0.250
v 0.125 1.5 -0.250
v 0.575 1.5 -0.250
v 0.575 1.5 0.250
v 0.125 1.5 0.250
usemtl Pants
f 25 26 30 29
f 26 27 31 30
f 27 28 32 31
f 28 25 29 32
f 29 30 31 32
f 28 27 26 25
o ArmL
v -1.050 1.6 -0.225
v -0.650 1.6 -0.225
v -0.650 1.6 0.225
v -1.050 1.6 0.225
v -1.050 3.4 -0.225
v -0.650 3.4 -0.225
v -0.650 3.4 0.225
v -1.050 3.4 0.225
usemtl Hero
f 33 34 38 37
f 34 35 39 38
f 35 36 40 39
f 36 33 37 40
f 37 38 39 40
f 36 35 34 33
o ArmR
v 0.650 1.6 -0.225
v 1.050 1.6 -0.225
v 1.050 1.6 0.225
v 0.650 1.6 0.225
v 0.650 3.4 -0.225
v 1.050 3.4 -0.225
v 1.050 3.4 0.225
v 0.650 3.4 0.225
usemtl Hero
f 41 42 46 45
f 42 43 47 46
f 43 44 48 47
f 44 41 45 48
f 45 46 47 48
f 44 43 42 41
o FootL
v -0.6 -0.1 -0.25
v -0.1 -0.1 -0.25
v -0.1 -0.1 0.55
v -0.6 -0.1 0.55
v -0.6 0.15 -0.25
v -0.1 0.15 -0.25
v -0.1 0.15 0.55
v -0.6 0.15 0.55
usemtl Boot
f 49 50 54 53
f 50 51 55 54
f 51 52 56 55
f 52 49 53 56
f 53 54 55 56
f 52 51 50 49
o FootR
v 0.1 -0.1 -0.25
v 0.6 -0.1 -0.25
v 0.6 -0.1 0.55
v 0.1 -0.1 0.55
v 0.1 0.15 -0.25
v 0.6 0.15 -0.25
v 0.6 0.15 0.55
v 0.1 0.15 0.55
usemtl Boot
f 57 58 62 61
f 58 59 63 62
f 59 60 64 63
f 60 57 61 64
f 61 62 63 64
f 60 59 58 57
